<?xml version="1.0" encoding="utf-8"?>
<!-- Generator: Adobe Illustrator 26.0.1, SVG Export Plug-In . SVG Version: 6.00 Build 0)  -->
<svg version="1.1" id="Layer_1" xmlns="http://www.w3.org/2000/svg" xmlns:xlink="http://www.w3.org/1999/xlink" x="0px" y="0px"
	 viewBox="0 0 60 60" style="enable-background:new 0 0 60 60;" xml:space="preserve">
<style type="text/css">
	.st0{fill:url(#SVGID_1_);}
	.st1{opacity:0.6;fill:url(#SVGID_00000168074418022269150390000013531563190858586253_);}
	.st2{fill:url(#SVGID_00000091696238840983080310000016785408342682164865_);}
	.st3{opacity:0.3;fill:#FFFFFF;}
	.st4{opacity:0.6;fill:url(#SVGID_00000027603992129548011950000017217162820036912017_);}
	.st5{opacity:0.6;fill:url(#SVGID_00000070090564564430668740000006116635320217743249_);}
	.st6{opacity:0.6;fill:url(#SVGID_00000062162650689486326840000002665998868352727979_);}
	.st7{fill:url(#SVGID_00000003075209492428385860000000521433627243094966_);}
	.st8{opacity:0.6;fill:url(#SVGID_00000056418628252584456830000015749260738598319791_);}
	.st9{fill:url(#SVGID_00000137818883528201128660000010363959687538639030_);}
	.st10{opacity:0.6;fill:url(#SVGID_00000023971820594216815620000005448517577902798750_);}
	.st11{opacity:0.3;}
	.st12{fill:#FFFFFF;}
	.st13{fill:url(#SVGID_00000039130527277840844530000016839199470692135301_);}
	.st14{opacity:0.6;fill:url(#SVGID_00000103243427776852028920000000975981611816002977_);}
	.st15{opacity:0.6;fill:url(#SVGID_00000111184340519343608570000018235213865000618430_);}
	.st16{opacity:0.6;fill:url(#SVGID_00000131329198223964067150000012909280291473688458_);}
</style>
<g>
	<g>
		<g>
			<linearGradient id="SVGID_1_" gradientUnits="userSpaceOnUse" x1="52.4774" y1="49.8181" x2="57.868" y2="53.75">
				<stop  offset="0" style="stop-color:#65498B"/>
				<stop  offset="0.4671" style="stop-color:#A51951"/>
				<stop  offset="1" style="stop-color:#DA2D2E"/>
			</linearGradient>
			<path class="st0" d="M49.25,48.16c0.01,0.09,0.02,0.18,0.03,0.26c0.63,4.11,4.46,6.93,8.57,6.3c0,0,0.01,0,0.01,0
				c0.44-0.07,0.59-0.62,0.26-0.92c-1.87-1.65-3.26-3.85-3.9-6.41L49.25,48.16z"/>
			
				<linearGradient id="SVGID_00000120554207217986325800000009187424635017195922_" gradientUnits="userSpaceOnUse" x1="5.9336" y1="50.0446" x2="4.7886" y2="50.8952" gradientTransform="matrix(-1 0 0 1 58.7316 0)">
				<stop  offset="0" style="stop-color:#5978BA"/>
				<stop  offset="1" style="stop-color:#65498B;stop-opacity:0"/>
			</linearGradient>
			<path style="opacity:0.6;fill:url(#SVGID_00000120554207217986325800000009187424635017195922_);" d="M54.23,47.41
				c0.24,0.96,0.58,1.86,1.02,2.71c-0.17,0.14-0.34,0.28-0.5,0.43c-0.94,0.86-1.6,1.94-2.03,3.12c-1.79-1.12-3.09-2.99-3.44-5.24
				c-0.01-0.09-0.02-0.18-0.03-0.26L54.23,47.41z"/>
		</g>
		
			<linearGradient id="SVGID_00000051345302648437680700000017019325433363218060_" gradientUnits="userSpaceOnUse" x1="37.7692" y1="36.192" x2="52.1018" y2="49.5099">
			<stop  offset="0" style="stop-color:#65498B"/>
			<stop  offset="0.4671" style="stop-color:#A51951"/>
			<stop  offset="1" style="stop-color:#DA2D2E"/>
		</linearGradient>
		<path style="fill:url(#SVGID_00000051345302648437680700000017019325433363218060_);" d="M45.08,26c-0.82,1.9-1.99,3.61-3.43,5.05
			c0.18-0.01,0.36-0.02,0.54-0.02c5.11,0,9.27,4.16,9.27,9.27c0,5.11-4.16,9.26-9.27,9.26c-3.61,0-6.74-2.07-8.27-5.09
			c-0.54,2.01-1.45,3.86-2.67,5.47c2.67,3.03,6.58,4.94,10.93,4.94c8.06,0,14.58-6.53,14.58-14.58C56.77,33.23,51.75,27.34,45.08,26
			z"/>
		<path class="st3" d="M50.91,29.14c3.49,3.2,5,7.97,5.2,12.56c0.06,1.42-0.13,2.9-0.53,4.35c0.76-1.77,1.18-3.71,1.18-5.76
			c0-5.91-3.51-10.99-8.57-13.29C49.15,27.64,50.06,28.35,50.91,29.14z"/>
		
			<linearGradient id="SVGID_00000013910178135429534050000008781897067412886159_" gradientUnits="userSpaceOnUse" x1="43.5318" y1="28.3286" x2="46.2991" y2="29.7122">
			<stop  offset="0" style="stop-color:#5978BA"/>
			<stop  offset="1" style="stop-color:#65498B;stop-opacity:0"/>
		</linearGradient>
		<path style="opacity:0.6;fill:url(#SVGID_00000013910178135429534050000008781897067412886159_);" d="M46.48,32.09
			c0.72-1.67,1.68-3.23,2.78-4.55c-1.29-0.72-2.7-1.24-4.19-1.54c-0.82,1.9-1.99,3.61-3.43,5.05c0.18-0.01,0.36-0.02,0.54-0.02
			C43.73,31.03,45.19,31.41,46.48,32.09z"/>
		
			<linearGradient id="SVGID_00000110472662368578545640000013369460844332220348_" gradientUnits="userSpaceOnUse" x1="33.5529" y1="48.2864" x2="36.3202" y2="49.6701">
			<stop  offset="0" style="stop-color:#5978BA"/>
			<stop  offset="1" style="stop-color:#65498B;stop-opacity:0"/>
		</linearGradient>
		<path style="opacity:0.6;fill:url(#SVGID_00000110472662368578545640000013369460844332220348_);" d="M37.43,48.24
			c-1.5-0.9-2.72-2.21-3.51-3.77c-0.54,2.01-1.45,3.86-2.67,5.47c1.34,1.52,3,2.76,4.86,3.61C36.22,51.79,36.69,49.96,37.43,48.24z"
			/>
		
			<linearGradient id="SVGID_00000035495313145221879710000016617461140493778360_" gradientUnits="userSpaceOnUse" x1="43.0639" y1="52.1029" x2="51.0971" y2="37.71">
			<stop  offset="0" style="stop-color:#5978BA"/>
			<stop  offset="1" style="stop-color:#65498B;stop-opacity:0"/>
		</linearGradient>
		<path style="opacity:0.6;fill:url(#SVGID_00000035495313145221879710000016617461140493778360_);" d="M56.04,35.81
			c0.1,0.7,0.17,1.41,0.2,2.11c0.18,3.94-1.89,8.45-4.64,11.19c-2.87,2.87-7.13,4.64-11.19,4.64c-2.37,0-4.6-0.55-6.64-1.52
			c2.37,1.67,5.26,2.65,8.38,2.65c8.05,0,14.58-6.53,14.58-14.58C56.75,38.73,56.5,37.22,56.04,35.81z"/>
	</g>
	<g>
		<g>
			
				<linearGradient id="SVGID_00000112610208554602117980000011640626230131076230_" gradientUnits="userSpaceOnUse" x1="1.7255" y1="54.7922" x2="7.5212" y2="49.7919">
				<stop  offset="0" style="stop-color:#2C9D73"/>
				<stop  offset="1" style="stop-color:#5978BA"/>
			</linearGradient>
			<path style="fill:url(#SVGID_00000112610208554602117980000011640626230131076230_);" d="M10.75,48.22
				c-0.01,0.09-0.02,0.18-0.03,0.26c-0.63,4.11-4.46,6.93-8.57,6.3c0,0-0.01,0-0.01,0c-0.44-0.07-0.59-0.62-0.26-0.92
				c1.87-1.65,3.26-3.85,3.9-6.41L10.75,48.22z"/>
			
				<linearGradient id="SVGID_00000123435795767484504200000017289170820366728351_" gradientUnits="userSpaceOnUse" x1="7.202" y1="50.105" x2="6.057" y2="50.9555">
				<stop  offset="0" style="stop-color:#5978BA"/>
				<stop  offset="1" style="stop-color:#65498B;stop-opacity:0"/>
			</linearGradient>
			<path style="opacity:0.6;fill:url(#SVGID_00000123435795767484504200000017289170820366728351_);" d="M5.77,47.47
				c-0.24,0.96-0.58,1.86-1.02,2.71c0.17,0.14,0.34,0.28,0.5,0.43c0.94,0.86,1.6,1.94,2.03,3.12c1.79-1.12,3.09-2.99,3.44-5.24
				c0.01-0.09,0.02-0.18,0.03-0.26L5.77,47.47z"/>
		</g>
		
			<linearGradient id="SVGID_00000142891962884776106280000016643729729383940740_" gradientUnits="userSpaceOnUse" x1="7.7372" y1="29.935" x2="28.095" y2="50.2927">
			<stop  offset="0" style="stop-color:#2C9D73"/>
			<stop  offset="1" style="stop-color:#5978BA"/>
		</linearGradient>
		<path style="fill:url(#SVGID_00000142891962884776106280000016643729729383940740_);" d="M18.16,31.09c5.11,0,9.27,4.16,9.27,9.27
			c0,5.11-4.16,9.27-9.27,9.27c-5.11,0-9.27-4.16-9.27-9.27C8.89,35.25,13.05,31.09,18.16,31.09 M18.16,25.77
			c-8.05,0-14.58,6.53-14.58,14.58s6.53,14.58,14.58,14.58c8.05,0,14.58-6.53,14.58-14.58S26.21,25.77,18.16,25.77L18.16,25.77z"/>
		
			<linearGradient id="SVGID_00000013892068088870361110000018027176248738406049_" gradientUnits="userSpaceOnUse" x1="19.0586" y1="52.1632" x2="27.0919" y2="37.7704">
			<stop  offset="0" style="stop-color:#5978BA"/>
			<stop  offset="1" style="stop-color:#65498B;stop-opacity:0"/>
		</linearGradient>
		<path style="opacity:0.6;fill:url(#SVGID_00000013892068088870361110000018027176248738406049_);" d="M32.03,35.87
			c0.1,0.7,0.17,1.41,0.2,2.11c0.18,3.94-1.89,8.45-4.64,11.19c-2.87,2.87-7.13,4.64-11.19,4.64c-2.37,0-4.6-0.55-6.64-1.52
			c2.37,1.67,5.26,2.65,8.38,2.65c8.05,0,14.58-6.53,14.58-14.58C32.74,38.79,32.49,37.28,32.03,35.87z"/>
		<g class="st11">
			<path class="st12" d="M18.65,50.6c5.11,0,9.27-4.16,9.27-9.27c0-1.67-0.45-3.24-1.22-4.59c0.47,1.11,0.74,2.33,0.74,3.62
				c0,5.11-4.16,9.27-9.27,9.27c-3.44,0-6.44-1.88-8.04-4.67C11.53,48.27,14.82,50.6,18.65,50.6z"/>
			<path class="st12" d="M4.07,41.33c0-8.05,6.53-14.58,14.58-14.58c5.51,0,10.3,3.05,12.78,7.56c-2.3-5.03-7.37-8.53-13.27-8.53
				c-8.05,0-14.58,6.53-14.58,14.58c0,2.55,0.65,4.94,1.8,7.02C4.54,45.54,4.07,43.49,4.07,41.33z"/>
		</g>
	</g>
	<g>
		
			<linearGradient id="SVGID_00000155828050168552574650000007571891151900421764_" gradientUnits="userSpaceOnUse" x1="20.9124" y1="9.1178" x2="40.7214" y2="28.9268">
			<stop  offset="0" style="stop-color:#FFE476"/>
			<stop  offset="0.4671" style="stop-color:#F18D2D"/>
			<stop  offset="1" style="stop-color:#DA2D2E"/>
		</linearGradient>
		<path style="fill:url(#SVGID_00000155828050168552574650000007571891151900421764_);" d="M44.29,15.31
			C44.29,15.3,44.29,15.3,44.29,15.31C42.44,9.37,36.9,5.06,30.36,5.06c-8.06,0-14.58,6.53-14.58,14.58c0,1.62,0.26,3.19,0.76,4.65
			c0.62-0.08,1.26-0.11,1.91-0.11c1.45,0,2.85,0.19,4.18,0.55c-0.97-1.46-1.53-3.21-1.53-5.08c0-5.11,4.16-9.27,9.27-9.27
			c5.11,0,9.26,4.16,9.26,9.27c0,3.25-1.68,6.11-4.21,7.76c0.28,0.18,0.54,0.39,0.8,0.62c0.99,0.91,1.42,2.26,1.47,3.56
			c0.01,0.23,0,0.46-0.04,0.69c0.19-0.11,0.39-0.23,0.58-0.35c0.58-0.38,1.14-0.78,1.66-1.24c3.1-2.67,5.06-6.63,5.06-11.04
			C44.95,18.13,44.72,16.68,44.29,15.31z"/>
		<g class="st11">
			<path class="st12" d="M30.62,5.87c5.1,0,9.6,2.53,12.33,6.41c-2.53-4.32-7.22-7.22-12.58-7.22c-7.32,0-13.38,5.4-14.43,12.43
				C17.5,10.83,23.48,5.87,30.62,5.87z"/>
			<path class="st12" d="M35.42,27.41c0.28,0.18,0.54,0.39,0.8,0.62c0.14,0.13,0.26,0.26,0.38,0.4c2.2-1.76,3.6-4.46,3.6-7.48
				c0-1.66-0.42-3.21-1.16-4.57c0.38,1.02,0.6,2.12,0.6,3.27C39.63,22.89,37.95,25.75,35.42,27.41z"/>
			<path class="st12" d="M21.03,20.95c0,1.26,0.25,2.46,0.69,3.56c0.3,0.06,0.6,0.13,0.9,0.21c-0.94-1.42-1.49-3.1-1.52-4.91
				C21.06,20.19,21.03,20.56,21.03,20.95z"/>
		</g>
		
			<linearGradient id="SVGID_00000177480091225898941500000006097064599254353325_" gradientUnits="userSpaceOnUse" x1="19.2014" y1="24.3626" x2="19.2014" y2="20.6999">
			<stop  offset="0" style="stop-color:#5978BA"/>
			<stop  offset="1" style="stop-color:#65498B;stop-opacity:0"/>
		</linearGradient>
		<path style="opacity:0.6;fill:url(#SVGID_00000177480091225898941500000006097064599254353325_);" d="M21.1,19.61
			c-0.79,0.23-1.6,0.36-2.43,0.36c-1.02,0-1.99-0.17-2.89-0.48c0,0.05,0,0.1,0,0.15c0,1.62,0.26,3.19,0.76,4.65
			c0.62-0.08,1.26-0.11,1.91-0.11c1.45,0,2.85,0.19,4.18,0.55c-0.97-1.46-1.53-3.21-1.53-5.08C21.1,19.63,21.1,19.62,21.1,19.61z"/>
		
			<linearGradient id="SVGID_00000066477331612354916770000001312435118362521259_" gradientUnits="userSpaceOnUse" x1="33.83" y1="34.371" x2="37.0857" y2="32.3362">
			<stop  offset="0" style="stop-color:#5978BA"/>
			<stop  offset="1" style="stop-color:#65498B;stop-opacity:0"/>
		</linearGradient>
		<path style="opacity:0.6;fill:url(#SVGID_00000066477331612354916770000001312435118362521259_);" d="M38.11,32
			c-0.14-0.11-0.28-0.22-0.42-0.34c0,0.2-0.01,0.4-0.04,0.61C37.8,32.18,37.96,32.09,38.11,32z"/>
		
			<linearGradient id="SVGID_00000162352195456743236970000015250974224741876631_" gradientUnits="userSpaceOnUse" x1="34.3314" y1="34.385" x2="44.7434" y2="19.4947">
			<stop  offset="0" style="stop-color:#5978BA"/>
			<stop  offset="1" style="stop-color:#65498B;stop-opacity:0"/>
		</linearGradient>
		<path style="opacity:0.6;fill:url(#SVGID_00000162352195456743236970000015250974224741876631_);" d="M44.27,15.13
			c0.01,0.06,0.02,0.11,0.02,0.17c0,0,0,0,0,0.01c0.09,0.65,0.15,1.29,0.18,1.94c0.18,3.94-1.89,8.45-4.63,11.19
			c-0.7,0.7-1.48,1.33-2.33,1.89c0.1,0.41,0.16,0.84,0.18,1.26c0.01,0.22,0,0.45-0.04,0.69c0.19-0.11,0.39-0.23,0.58-0.35
			c0.58-0.38,1.14-0.78,1.66-1.24c3.12-2.67,5.09-6.64,5.09-11.07C44.97,18.05,44.72,16.54,44.27,15.13z"/>
	</g>
</g>
</svg>
