<?xml version="1.0" encoding="utf-8"?>
<!-- Generator: Adobe Illustrator 25.0.0, SVG Export Plug-In . SVG Version: 6.00 Build 0)  -->
<svg version="1.1" id="Layer_1" xmlns="http://www.w3.org/2000/svg" xmlns:xlink="http://www.w3.org/1999/xlink" x="0px" y="0px"
	 viewBox="0 0 28 28" style="enable-background:new 0 0 28 28;" xml:space="preserve">
<style type="text/css">
	.st0{fill:#FFFFFF;}
</style>
<g>
	<path class="st0" d="M14,0c2.6,0,5.2-0.01,7.8,0c3.14,0.02,5.66,2.25,6.08,5.36c0.03,0.25,0.05,0.51,0.05,0.77
		c0,5.29,0,10.57,0,15.86c0,3.05-2.19,5.61-5.2,6.08c-0.34,0.05-0.7,0.07-1.05,0.07c-5.12,0-10.23-0.02-15.35,0.01
		c-2.69,0.01-5-1.64-5.87-4.02c-0.25-0.69-0.38-1.41-0.38-2.14c0-5.28,0-10.56,0-15.84c0-3.12,2.28-5.71,5.38-6.1
		c0.31-0.04,0.63-0.05,0.95-0.05C8.94,0,11.47,0,14,0C14,0,14,0,14,0z M18.74,15.26c0.47,0.29,0.9,0.65,1.17,1.14
		c0.73,1.3,0.65,2.6-0.1,3.84c-0.68,1.12-1.7,1.86-2.95,2.25c-1.91,0.58-3.84,0.55-5.73-0.08c-1.32-0.44-2.35-1.27-3.1-2.44
		c-0.52-0.8-0.85-1.68-1.07-2.61c-0.36-1.52-0.44-3.06-0.31-4.61c0.09-1.12,0.3-2.22,0.72-3.27c0.79-1.99,2.18-3.33,4.26-3.9
		c1.39-0.38,2.8-0.42,4.21-0.17c2.48,0.44,4.22,1.82,5.16,4.17c0.13,0.33,0.24,0.67,0.36,1.03c0.59-0.16,1.18-0.31,1.81-0.48
		c-0.14-0.41-0.26-0.81-0.42-1.2c-1.02-2.56-2.8-4.32-5.47-5.12c-1.68-0.5-3.39-0.56-5.11-0.29c-1.38,0.22-2.66,0.7-3.78,1.55
		C6.91,6.18,5.98,7.67,5.41,9.4C5,10.66,4.8,11.96,4.75,13.28c-0.08,1.99,0.1,3.94,0.79,5.82c0.98,2.67,2.77,4.5,5.54,5.28
		c1.68,0.47,3.38,0.51,5.09,0.23c1.95-0.32,3.59-1.21,4.81-2.78c1.44-1.87,1.7-3.93,0.69-6.09c-0.56-1.19-1.56-1.96-2.74-2.5
		c-0.11-0.05-0.15-0.11-0.17-0.24c-0.04-0.36-0.08-0.73-0.16-1.08c-0.24-1.08-0.72-2.02-1.62-2.7c-0.68-0.51-1.45-0.76-2.29-0.83
		c-1.1-0.1-2.14,0.06-3.1,0.63c-0.57,0.34-1.04,0.79-1.4,1.36c0.52,0.35,1.02,0.7,1.43,0.98c0.24-0.2,0.45-0.37,0.67-0.53
		c0.72-0.55,1.54-0.64,2.4-0.53c0.7,0.09,1.29,0.38,1.68,0.99c0.25,0.39,0.4,0.83,0.46,1.31c-0.96-0.15-1.89-0.18-2.83-0.11
		c-0.84,0.07-1.65,0.28-2.38,0.73c-2.07,1.27-2.27,4.06-0.4,5.57c0.67,0.54,1.46,0.81,2.31,0.89c2.09,0.18,3.98-0.65,4.78-2.93
		C18.5,16.27,18.6,15.76,18.74,15.26z"/>
	<path class="st0" d="M16.9,14.56c-0.06,0.68-0.17,1.32-0.46,1.91c-0.37,0.75-0.96,1.18-1.79,1.29c-0.67,0.09-1.32,0.06-1.93-0.25
		c-0.54-0.27-0.88-0.7-0.9-1.32c-0.02-0.6,0.28-1.04,0.78-1.35c0.52-0.33,1.1-0.43,1.7-0.47c0.82-0.05,1.65-0.02,2.46,0.15
		C16.8,14.52,16.84,14.54,16.9,14.56z"/>
</g>
</svg>
