<?xml version="1.0" encoding="utf-8"?>
<!-- Generator: Adobe Illustrator 25.0.0, SVG Export Plug-In . SVG Version: 6.00 Build 0)  -->
<svg version="1.1" id="Layer_1" xmlns="http://www.w3.org/2000/svg" xmlns:xlink="http://www.w3.org/1999/xlink" x="0px" y="0px"
	 viewBox="0 0 512 512" style="enable-background:new 0 0 512 512;" xml:space="preserve">
<style type="text/css">
	.st0{fill:url(#SVGID_1_);}
</style>
<linearGradient id="SVGID_1_" gradientUnits="userSpaceOnUse" x1="26.1" y1="256.3898" x2="486.9" y2="256.3898">
	<stop  offset="0" style="stop-color:#6C39EF"/>
	<stop  offset="1" style="stop-color:#3954EF"/>
</linearGradient>
<path class="st0" d="M445.9,123.3H128.5c-22.5,0-41,18.4-41,41v15.4c0,5.6,4.6,10.2,10.2,10.2c5.6,0,10.2-4.6,10.2-10.2v-15.4
	c0-2,0.5-4.1,1-6.1l114.7,98.3L109,354.7c-0.5-2-1-4.1-1-6.1v-15.4c0-5.6-4.6-10.2-10.2-10.2c-5.6,0-10.2,4.6-10.2,10.2v15.4
	c0,22.5,18.4,41,41,41h317.4c22.5,0,41-18.4,41-41V164.2C486.9,141.7,468.5,123.3,445.9,123.3z M124.4,144.3c1-0.5,2.6-0.5,4.1-0.5
	h317.4c1.5,0,3.1,0,4.1,0.5L293.9,277.9c-4.1,3.1-9.2,3.1-13.3,0L124.4,144.3z M445.9,369H128.5c-1.5,0-3.1,0-4.1-0.5l115.2-98.8
	l27.6,24.1c5.6,5.1,12.8,7.7,20,7.7c7.2,0,14.3-2.6,20-7.7l27.6-24.1L450,368.5C449,369,447.5,369,445.9,369z M466.4,348.5
	c0,2-0.5,4.1-1,6.1l-114.7-98.3l114.7-98.3c0.5,2,1,4.1,1,6.1V348.5z M56.8,230.8c0-5.6,4.6-10.2,10.2-10.2h61.4
	c5.6,0,10.2,4.6,10.2,10.2c0,5.6-4.6,10.2-10.2,10.2H67.1C61.4,241,56.8,236.4,56.8,230.8z M128.5,292.2H36.3
	c-5.6,0-10.2-4.6-10.2-10.2s4.6-10.2,10.2-10.2h92.2c5.6,0,10.2,4.6,10.2,10.2S134.1,292.2,128.5,292.2z"/>
</svg>
